<mxfile host="app.diagrams.net" modified="2023-08-05T02:27:48.742Z" agent="Mozilla/5.0 (Windows NT 10.0; Win64; x64) AppleWebKit/537.36 (KHTML, like Gecko) Chrome/109.0.0.0 Safari/537.36" etag="FaB7NnIdgWR3Tab5-D5U" version="21.6.6" type="github">
  <diagram name="第 1 页" id="dakM9nL8LV4iqTdno8jL">
    <mxGraphModel dx="2261" dy="1971" grid="1" gridSize="10" guides="1" tooltips="1" connect="1" arrows="1" fold="1" page="1" pageScale="1" pageWidth="827" pageHeight="1169" math="0" shadow="0">
      <root>
        <mxCell id="0" />
        <mxCell id="1" parent="0" />
        <mxCell id="mPqD-2F0gGFnDQa81UJL-1" value="" style="rounded=1;whiteSpace=wrap;html=1;" vertex="1" parent="1">
          <mxGeometry x="380" y="190" width="120" height="60" as="geometry" />
        </mxCell>
        <mxCell id="mPqD-2F0gGFnDQa81UJL-28" style="edgeStyle=orthogonalEdgeStyle;rounded=0;orthogonalLoop=1;jettySize=auto;html=1;exitX=0;exitY=0;exitDx=0;exitDy=0;" edge="1" parent="1" source="mPqD-2F0gGFnDQa81UJL-2" target="mPqD-2F0gGFnDQa81UJL-27">
          <mxGeometry relative="1" as="geometry" />
        </mxCell>
        <mxCell id="mPqD-2F0gGFnDQa81UJL-2" value="自我管理" style="ellipse;whiteSpace=wrap;html=1;aspect=fixed;" vertex="1" parent="1">
          <mxGeometry x="410" y="380" width="80" height="80" as="geometry" />
        </mxCell>
        <mxCell id="mPqD-2F0gGFnDQa81UJL-3" value="认知与决策" style="ellipse;whiteSpace=wrap;html=1;aspect=fixed;" vertex="1" parent="1">
          <mxGeometry x="80" y="460" width="80" height="80" as="geometry" />
        </mxCell>
        <mxCell id="mPqD-2F0gGFnDQa81UJL-4" value="机会" style="rounded=1;whiteSpace=wrap;html=1;" vertex="1" parent="1">
          <mxGeometry x="-60" y="360" width="120" height="60" as="geometry" />
        </mxCell>
        <mxCell id="mPqD-2F0gGFnDQa81UJL-5" value="杠杆" style="rounded=1;whiteSpace=wrap;html=1;" vertex="1" parent="1">
          <mxGeometry x="70" y="310" width="120" height="60" as="geometry" />
        </mxCell>
        <mxCell id="mPqD-2F0gGFnDQa81UJL-7" value="压力管理" style="rounded=1;whiteSpace=wrap;html=1;" vertex="1" parent="1">
          <mxGeometry x="580" y="380" width="120" height="60" as="geometry" />
        </mxCell>
        <mxCell id="mPqD-2F0gGFnDQa81UJL-8" value="精力" style="rounded=1;whiteSpace=wrap;html=1;" vertex="1" parent="1">
          <mxGeometry x="550" y="480" width="120" height="60" as="geometry" />
        </mxCell>
        <mxCell id="mPqD-2F0gGFnDQa81UJL-9" value="时间" style="rounded=1;whiteSpace=wrap;html=1;" vertex="1" parent="1">
          <mxGeometry x="320" y="510" width="120" height="60" as="geometry" />
        </mxCell>
        <mxCell id="mPqD-2F0gGFnDQa81UJL-10" value="模型迁移" style="ellipse;whiteSpace=wrap;html=1;aspect=fixed;" vertex="1" parent="1">
          <mxGeometry x="374" y="50" width="80" height="80" as="geometry" />
        </mxCell>
        <mxCell id="mPqD-2F0gGFnDQa81UJL-11" value="案例" style="rounded=1;whiteSpace=wrap;html=1;" vertex="1" parent="1">
          <mxGeometry x="490" y="-30" width="120" height="60" as="geometry" />
        </mxCell>
        <mxCell id="mPqD-2F0gGFnDQa81UJL-12" value="羽毛球" style="rounded=1;whiteSpace=wrap;html=1;" vertex="1" parent="1">
          <mxGeometry x="670" y="-90" width="120" height="60" as="geometry" />
        </mxCell>
        <mxCell id="mPqD-2F0gGFnDQa81UJL-13" value="象棋" style="rounded=1;whiteSpace=wrap;html=1;" vertex="1" parent="1">
          <mxGeometry x="670" y="-20" width="120" height="60" as="geometry" />
        </mxCell>
        <mxCell id="mPqD-2F0gGFnDQa81UJL-14" value="案例" style="rounded=1;whiteSpace=wrap;html=1;" vertex="1" parent="1">
          <mxGeometry x="490" y="120" width="120" height="60" as="geometry" />
        </mxCell>
        <mxCell id="mPqD-2F0gGFnDQa81UJL-15" value="模型" style="rounded=1;whiteSpace=wrap;html=1;" vertex="1" parent="1">
          <mxGeometry x="660" y="90" width="120" height="60" as="geometry" />
        </mxCell>
        <mxCell id="mPqD-2F0gGFnDQa81UJL-16" value="细节" style="rounded=1;whiteSpace=wrap;html=1;" vertex="1" parent="1">
          <mxGeometry x="660" y="160" width="120" height="60" as="geometry" />
        </mxCell>
        <mxCell id="mPqD-2F0gGFnDQa81UJL-17" value="认知" style="rounded=1;whiteSpace=wrap;html=1;" vertex="1" parent="1">
          <mxGeometry x="750" y="330" width="120" height="60" as="geometry" />
        </mxCell>
        <mxCell id="mPqD-2F0gGFnDQa81UJL-18" value="戒" style="rounded=1;whiteSpace=wrap;html=1;" vertex="1" parent="1">
          <mxGeometry x="750" y="390" width="120" height="60" as="geometry" />
        </mxCell>
        <mxCell id="mPqD-2F0gGFnDQa81UJL-19" value="病痛" style="ellipse;whiteSpace=wrap;html=1;aspect=fixed;" vertex="1" parent="1">
          <mxGeometry x="900" y="670" width="80" height="80" as="geometry" />
        </mxCell>
        <mxCell id="mPqD-2F0gGFnDQa81UJL-22" style="edgeStyle=orthogonalEdgeStyle;rounded=0;orthogonalLoop=1;jettySize=auto;html=1;exitX=0;exitY=0.5;exitDx=0;exitDy=0;entryX=0.5;entryY=1;entryDx=0;entryDy=0;" edge="1" parent="1" source="mPqD-2F0gGFnDQa81UJL-20" target="mPqD-2F0gGFnDQa81UJL-2">
          <mxGeometry relative="1" as="geometry" />
        </mxCell>
        <mxCell id="mPqD-2F0gGFnDQa81UJL-20" value="气运" style="ellipse;whiteSpace=wrap;html=1;aspect=fixed;" vertex="1" parent="1">
          <mxGeometry x="800" y="610" width="80" height="80" as="geometry" />
        </mxCell>
        <mxCell id="mPqD-2F0gGFnDQa81UJL-21" value="气运" style="ellipse;whiteSpace=wrap;html=1;aspect=fixed;" vertex="1" parent="1">
          <mxGeometry x="910" y="560" width="80" height="80" as="geometry" />
        </mxCell>
        <mxCell id="mPqD-2F0gGFnDQa81UJL-23" value="形象" style="ellipse;whiteSpace=wrap;html=1;aspect=fixed;" vertex="1" parent="1">
          <mxGeometry x="1030" y="630" width="80" height="80" as="geometry" />
        </mxCell>
        <mxCell id="mPqD-2F0gGFnDQa81UJL-24" value="头发" style="rounded=1;whiteSpace=wrap;html=1;" vertex="1" parent="1">
          <mxGeometry x="1100" y="570" width="120" height="60" as="geometry" />
        </mxCell>
        <mxCell id="mPqD-2F0gGFnDQa81UJL-25" value="皮肤" style="rounded=1;whiteSpace=wrap;html=1;" vertex="1" parent="1">
          <mxGeometry x="1140" y="670" width="120" height="60" as="geometry" />
        </mxCell>
        <mxCell id="mPqD-2F0gGFnDQa81UJL-26" value="气质" style="rounded=1;whiteSpace=wrap;html=1;" vertex="1" parent="1">
          <mxGeometry x="1060" y="760" width="120" height="60" as="geometry" />
        </mxCell>
        <mxCell id="mPqD-2F0gGFnDQa81UJL-27" value="留给我的时间 - 死亡恐惧" style="ellipse;whiteSpace=wrap;html=1;aspect=fixed;fillColor=#fff2cc;strokeColor=#d6b656;" vertex="1" parent="1">
          <mxGeometry x="270" y="230" width="80" height="80" as="geometry" />
        </mxCell>
      </root>
    </mxGraphModel>
  </diagram>
</mxfile>
